RWalking1.mot
version=1
datacolumns 20
datarows 25
range 2.280000 2.520000
inDegrees=yes
endheader
time	pelvis_tilt	pelvis_list	pelvis_rotation	hip_flexion_r	hip_adduction_r	hip_rotation_r	knee_angle_r	ankle_angle_r	hip_flexion_l	hip_adduction_l	hip_rotation_l	knee_angle_l	ankle_angle_l	pelvis_tx	pelvis_ty	pelvis_tz	lumbar_bending	lumbar_rotation	lumbar_extension
2.280000	-7.710000	-0.160000	1.610000	-7.320000	4.640000	-8.670000	1.930000	7.670000	34.530000	2.210000	1.560000	-14.160000	0.790000	0.840000	0.950000	0.010000	-7.240000	-7.600000	-0.660000
2.290000	-7.540000	-0.390000	1.440000	-8.470000	4.900000	-8.590000	2.070000	8.160000	34.390000	2.430000	1.010000	-11.240000	1.130000	0.860000	0.950000	0.000000	-7.120000	-7.820000	-0.880000
2.300000	-7.400000	-0.590000	1.240000	-9.540000	5.080000	-8.450000	2.100000	8.640000	34.260000	2.660000	0.540000	-8.710000	1.520000	0.870000	0.950000	0.000000	-7.040000	-8.050000	-1.070000
2.310000	-7.290000	-0.740000	1.020000	-10.520000	5.170000	-8.260000	1.990000	9.070000	34.110000	2.880000	0.160000	-6.620000	1.940000	0.880000	0.950000	0.000000	-6.990000	-8.300000	-1.220000
2.320000	-7.220000	-0.820000	0.770000	-11.390000	5.150000	-8.040000	1.750000	9.440000	33.960000	3.080000	-0.140000	-5.000000	2.330000	0.900000	0.940000	0.000000	-6.970000	-8.580000	-1.310000
2.330000	-7.180000	-0.820000	0.480000	-12.130000	5.010000	-7.830000	1.350000	9.740000	33.810000	3.220000	-0.370000	-3.900000	2.660000	0.910000	0.940000	0.000000	-6.950000	-8.880000	-1.340000
2.340000	-7.180000	-0.740000	0.170000	-12.750000	4.760000	-7.640000	0.790000	9.940000	33.650000	3.260000	-0.550000	-3.320000	2.850000	0.920000	0.940000	0.000000	-6.930000	-9.170000	-1.290000
2.350000	-7.200000	-0.570000	-0.140000	-13.230000	4.390000	-7.500000	0.070000	10.030000	33.500000	3.180000	-0.680000	-3.220000	2.850000	0.940000	0.940000	-0.000000	-6.920000	-9.420000	-1.140000
2.360000	-7.270000	-0.300000	-0.440000	-13.590000	3.930000	-7.400000	-0.800000	9.990000	33.340000	2.980000	-0.740000	-3.550000	2.590000	0.950000	0.930000	-0.000000	-6.920000	-9.620000	-0.900000
2.370000	-7.350000	0.040000	-0.710000	-13.830000	3.380000	-7.340000	-1.830000	9.830000	33.200000	2.650000	-0.740000	-4.220000	2.030000	0.960000	0.930000	-0.000000	-6.940000	-9.740000	-0.560000
2.380000	-7.470000	0.440000	-0.930000	-13.960000	2.770000	-7.270000	-3.030000	9.530000	33.050000	2.220000	-0.670000	-5.120000	1.180000	0.980000	0.930000	-0.000000	-7.000000	-9.790000	-0.150000
2.390000	-7.600000	0.880000	-1.100000	-13.980000	2.120000	-7.180000	-4.400000	9.080000	32.910000	1.710000	-0.560000	-6.140000	0.070000	0.990000	0.930000	-0.010000	-7.110000	-9.760000	0.330000
2.400000	-7.740000	1.360000	-1.210000	-13.880000	1.450000	-7.050000	-5.970000	8.410000	32.760000	1.140000	-0.460000	-7.220000	-1.260000	1.010000	0.930000	-0.010000	-7.270000	-9.680000	0.850000
2.410000	-7.880000	1.840000	-1.270000	-13.670000	0.780000	-6.860000	-7.730000	7.470000	32.600000	0.550000	-0.390000	-8.280000	-2.690000	1.020000	0.930000	-0.010000	-7.480000	-9.560000	1.380000
2.420000	-8.030000	2.310000	-1.270000	-13.330000	0.100000	-6.620000	-9.680000	6.170000	32.430000	-0.040000	-0.400000	-9.320000	-4.100000	1.040000	0.930000	-0.010000	-7.720000	-9.400000	1.910000
2.430000	-8.160000	2.760000	-1.250000	-12.850000	-0.550000	-6.370000	-11.810000	4.500000	32.250000	-0.620000	-0.480000	-10.320000	-5.330000	1.050000	0.930000	-0.010000	-8.010000	-9.220000	2.400000
2.440000	-8.290000	3.170000	-1.200000	-12.230000	-1.190000	-6.130000	-14.140000	2.480000	32.040000	-1.180000	-0.610000	-11.320000	-6.270000	1.070000	0.930000	-0.010000	-8.310000	-9.010000	2.850000
2.450000	-8.400000	3.530000	-1.140000	-11.450000	-1.810000	-5.930000	-16.670000	0.160000	31.800000	-1.690000	-0.780000	-12.300000	-6.850000	1.080000	0.930000	-0.010000	-8.610000	-8.780000	3.230000
2.460000	-8.490000	3.860000	-1.090000	-10.500000	-2.430000	-5.770000	-19.390000	-2.350000	31.500000	-2.180000	-0.960000	-13.280000	-7.050000	1.100000	0.940000	-0.020000	-8.910000	-8.520000	3.550000
2.470000	-8.560000	4.160000	-1.050000	-9.370000	-3.050000	-5.650000	-22.330000	-4.920000	31.150000	-2.640000	-1.120000	-14.220000	-6.910000	1.110000	0.940000	-0.020000	-9.180000	-8.250000	3.820000
2.480000	-8.640000	4.460000	-1.030000	-8.040000	-3.680000	-5.510000	-25.500000	-7.390000	30.720000	-3.070000	-1.240000	-15.070000	-6.480000	1.130000	0.940000	-0.020000	-9.420000	-7.980000	4.070000
2.490000	-8.720000	4.760000	-1.060000	-6.480000	-4.340000	-5.320000	-28.870000	-9.610000	30.230000	-3.490000	-1.260000	-15.790000	-5.850000	1.140000	0.940000	-0.020000	-9.650000	-7.720000	4.310000
2.500000	-8.830000	5.080000	-1.140000	-4.710000	-5.010000	-5.060000	-32.410000	-11.460000	29.670000	-3.890000	-1.190000	-16.320000	-5.080000	1.160000	0.940000	-0.020000	-9.860000	-7.470000	4.560000
2.510000	-8.940000	5.400000	-1.260000	-2.770000	-5.650000	-4.700000	-36.040000	-12.850000	29.010000	-4.270000	-1.030000	-16.660000	-4.240000	1.170000	0.940000	-0.030000	-10.050000	-7.220000	4.820000
2.520000	-9.030000	5.720000	-1.410000	-0.730000	-6.250000	-4.280000	-39.650000	-13.740000	28.250000	-4.630000	-0.820000	-16.810000	-3.370000	1.190000	0.950000	-0.030000	-10.200000	-6.960000	5.080000
